<?xml version="1.0" encoding="UTF-8" standalone="no"?>
<svg width="600" height="400" xmlns="http://www.w3.org/2000/svg">
  <!-- Background -->
  <rect x="0" y="0" width="600" height="400" fill="#ffffff" stroke="none"/>
  
  <!-- Title -->
  <text x="300" y="40" font-family="Arial" font-size="20" text-anchor="middle" font-weight="bold">Phase Offset Models: Convergence Benefits</text>

  <!-- Axis -->
  <line x1="100" y1="300" x2="500" y2="300" stroke="#000000" stroke-width="2"/>
  <line x1="100" y1="300" x2="100" y2="100" stroke="#000000" stroke-width="2"/>
  
  <!-- Axis Labels -->
  <text x="300" y="340" font-family="Arial" font-size="14" text-anchor="middle">Training Epochs</text>
  <text x="50" y="200" font-family="Arial" font-size="14" text-anchor="middle" transform="rotate(-90,50,200)">Loss</text>
  
  <!-- X-axis markers -->
  <line x1="100" y1="300" x2="100" y2="305" stroke="#000000" stroke-width="1"/>
  <text x="100" y="320" font-family="Arial" font-size="12" text-anchor="middle">0</text>
  
  <line x1="200" y1="300" x2="200" y2="305" stroke="#000000" stroke-width="1"/>
  <text x="200" y="320" font-family="Arial" font-size="12" text-anchor="middle">5</text>
  
  <line x1="300" y1="300" x2="300" y2="305" stroke="#000000" stroke-width="1"/>
  <text x="300" y="320" font-family="Arial" font-size="12" text-anchor="middle">10</text>
  
  <line x1="400" y1="300" x2="400" y2="305" stroke="#000000" stroke-width="1"/>
  <text x="400" y="320" font-family="Arial" font-size="12" text-anchor="middle">15</text>
  
  <line x1="500" y1="300" x2="500" y2="305" stroke="#000000" stroke-width="1"/>
  <text x="500" y="320" font-family="Arial" font-size="12" text-anchor="middle">20</text>
  
  <!-- Standard FAN loss curve -->
  <path d="M 100,150 Q 150,130 200,180 Q 250,200 300,190 Q 350,175 400,165 Q 450,160 500,155" fill="none" stroke="#0066cc" stroke-width="3"/>
  
  <!-- Phase Offset FAN loss curve -->
  <path d="M 100,150 Q 125,140 150,120 Q 175,110 200,130 Q 225,140 250,120 Q 300,110 350,150 Q 400,145 500,140" fill="none" stroke="#cc0000" stroke-width="3"/>
  
  <!-- Target performance threshold -->
  <line x1="100" y1="130" x2="500" y2="130" stroke="#006600" stroke-width="2" stroke-dasharray="5,5"/>
  <text x="520" y="130" font-family="Arial" font-size="12" fill="#006600">Target</text>
  
  <!-- Convergence points -->
  <circle cx="400" cy="155" r="6" fill="#0066cc"/>
  <line x1="400" y1="155" x2="400" y2="300" stroke="#0066cc" stroke-width="1" stroke-dasharray="3,3"/>
  
  <circle cx="200" cy="130" r="6" fill="#cc0000"/>
  <line x1="200" y1="130" x2="200" y2="300" stroke="#cc0000" stroke-width="1" stroke-dasharray="3,3"/>
  
  <!-- Legend -->
  <rect x="350" y="70" width="20" height="10" fill="none" stroke="#0066cc" stroke-width="3"/>
  <text x="380" y="80" font-family="Arial" font-size="12">Standard FAN</text>
  
  <rect x="350" y="90" width="20" height="10" fill="none" stroke="#cc0000" stroke-width="3"/>
  <text x="380" y="100" font-family="Arial" font-size="12">Phase Offset FAN (π/4)</text>
  
  <!-- Annotation -->
  <path d="M 280,200 L 300,220 L 340,220" fill="none" stroke="#000000" stroke-width="1" marker-end="url(#arrow)"/>
  <text x="380" y="225" font-family="Arial" font-size="12" text-anchor="middle">2x Faster Convergence</text>
  
  <!-- Arrow Definition -->
  <defs>
    <marker id="arrow" markerWidth="10" markerHeight="10" refX="9" refY="3" orient="auto" markerUnits="strokeWidth">
      <path d="M0,0 L0,6 L9,3 z" fill="#000000"/>
    </marker>
  </defs>
</svg>